<svg width="162" height="154" viewBox="0 0 162 154" fill="none" xmlns="http://www.w3.org/2000/svg">
<path d="M25.6667 44.9167V57.75C25.6667 61.2792 22.7792 64.1667 19.25 64.1667H12.8333V89.8333H19.25C22.7792 89.8333 25.6667 92.7208 25.6667 96.25V109.083C25.6667 119.671 34.3292 128.333 44.9167 128.333H64.1667V115.5H44.9167C41.3875 115.5 38.5 112.613 38.5 109.083V96.25C38.5 87.9083 33.11 80.7217 25.6667 78.0908V75.9092C33.11 73.2783 38.5 66.0917 38.5 57.75V44.9167C38.5 41.3875 41.3875 38.5 44.9167 38.5H64.1667V25.6667H44.9167C34.3292 25.6667 25.6667 34.3292 25.6667 44.9167ZM134.75 64.1667C131.221 64.1667 128.333 61.2792 128.333 57.75V44.9167C128.333 34.3292 119.671 25.6667 109.083 25.6667H89.8333V38.5H109.083C112.612 38.5 115.5 41.3875 115.5 44.9167V57.75C115.5 66.0917 120.89 73.2783 128.333 75.9092V78.0908C120.89 80.7217 115.5 87.8442 115.5 96.25V109.083C115.5 112.613 112.612 115.5 109.083 115.5H89.8333V128.333H109.083C119.671 128.333 128.333 119.671 128.333 109.083V96.25C128.333 92.7208 131.221 89.8333 134.75 89.8333H141.167V64.1667H134.75Z" fill="#F5EAE6"/>
<path d="M27.6667 44.9167V57.75C27.6667 61.2792 24.7792 64.1667 21.25 64.1667H14.8333V89.8333H21.25C24.7792 89.8333 27.6667 92.7208 27.6667 96.25V109.083C27.6667 119.671 36.3292 128.333 46.9167 128.333H66.1667V115.5H46.9167C43.3875 115.5 40.5 112.613 40.5 109.083V96.25C40.5 87.9083 35.11 80.7217 27.6667 78.0908V75.9092C35.11 73.2783 40.5 66.0917 40.5 57.75V44.9167C40.5 41.3875 43.3875 38.5 46.9167 38.5H66.1667V25.6667H46.9167C36.3292 25.6667 27.6667 34.3292 27.6667 44.9167ZM136.75 64.1667C133.221 64.1667 130.333 61.2792 130.333 57.75V44.9167C130.333 34.3292 121.671 25.6667 111.083 25.6667H91.8333V38.5H111.083C114.612 38.5 117.5 41.3875 117.5 44.9167V57.75C117.5 66.0917 122.89 73.2783 130.333 75.9092V78.0908C122.89 80.7217 117.5 87.8442 117.5 96.25V109.083C117.5 112.613 114.612 115.5 111.083 115.5H91.8333V128.333H111.083C121.671 128.333 130.333 119.671 130.333 109.083V96.25C130.333 92.7208 133.221 89.8333 136.75 89.8333H143.167V64.1667H136.75Z" fill="#EAD5CD"/>
<path d="M30.6667 44.9167V57.75C30.6667 61.2792 27.7792 64.1667 24.25 64.1667H17.8333V89.8333H24.25C27.7792 89.8333 30.6667 92.7208 30.6667 96.25V109.083C30.6667 119.671 39.3292 128.333 49.9167 128.333H69.1667V115.5H49.9167C46.3875 115.5 43.5 112.613 43.5 109.083V96.25C43.5 87.9083 38.11 80.7217 30.6667 78.0908V75.9092C38.11 73.2783 43.5 66.0917 43.5 57.75V44.9167C43.5 41.3875 46.3875 38.5 49.9167 38.5H69.1667V25.6667H49.9167C39.3292 25.6667 30.6667 34.3292 30.6667 44.9167ZM139.75 64.1667C136.221 64.1667 133.333 61.2792 133.333 57.75V44.9167C133.333 34.3292 124.671 25.6667 114.083 25.6667H94.8333V38.5H114.083C117.612 38.5 120.5 41.3875 120.5 44.9167V57.75C120.5 66.0917 125.89 73.2783 133.333 75.9092V78.0908C125.89 80.7217 120.5 87.8442 120.5 96.25V109.083C120.5 112.613 117.612 115.5 114.083 115.5H94.8333V128.333H114.083C124.671 128.333 133.333 119.671 133.333 109.083V96.25C133.333 92.7208 136.221 89.8333 139.75 89.8333H146.167V64.1667H139.75Z" fill="#CC9885"/>
<path d="M33.6667 44.9167V57.75C33.6667 61.2792 30.7792 64.1667 27.25 64.1667H20.8333V89.8333H27.25C30.7792 89.8333 33.6667 92.7208 33.6667 96.25V109.083C33.6667 119.671 42.3292 128.333 52.9167 128.333H72.1667V115.5H52.9167C49.3875 115.5 46.5 112.613 46.5 109.083V96.25C46.5 87.9083 41.11 80.7217 33.6667 78.0908V75.9092C41.11 73.2783 46.5 66.0917 46.5 57.75V44.9167C46.5 41.3875 49.3875 38.5 52.9167 38.5H72.1667V25.6667H52.9167C42.3292 25.6667 33.6667 34.3292 33.6667 44.9167ZM142.75 64.1667C139.221 64.1667 136.333 61.2792 136.333 57.75V44.9167C136.333 34.3292 127.671 25.6667 117.083 25.6667H97.8333V38.5H117.083C120.612 38.5 123.5 41.3875 123.5 44.9167V57.75C123.5 66.0917 128.89 73.2783 136.333 75.9092V78.0908C128.89 80.7217 123.5 87.8442 123.5 96.25V109.083C123.5 112.613 120.612 115.5 117.083 115.5H97.8333V128.333H117.083C127.671 128.333 136.333 119.671 136.333 109.083V96.25C136.333 92.7208 139.221 89.8333 142.75 89.8333H149.167V64.1667H142.75Z" fill="#B97257"/>
</svg>
