<svg width="95" height="108" viewBox="0 0 95 108" fill="none" xmlns="http://www.w3.org/2000/svg">
<path d="M61.75 20.126V5.53277C61.75 2.84622 63.8766 0.66835 66.5 0.66835C69.1234 0.66835 71.25 2.84622 71.25 5.53277V20.126C71.25 21.4161 71.7508 22.6531 72.6416 23.5653C73.5324 24.4776 74.7402 24.9904 76 24.9904H90.25C92.8734 24.9904 95 27.1683 95 29.8549C95 32.5414 92.8734 34.7193 90.25 34.7193H76C72.2207 34.7193 68.5972 33.1807 65.9248 30.4439C63.5869 28.0497 62.1438 24.9102 61.8196 21.5701L61.75 20.126Z" fill="#798B9B"/>
<path d="M38 56.6092V12.8294C38 6.25132 43.4516 0.66835 49.875 0.66835H71.25L71.7185 0.692102C72.8063 0.802476 73.8287 1.29501 74.6084 2.09347L93.6084 21.5511C94.4992 22.4634 95 23.7003 95 24.9904V56.6092C95 63.1872 89.5484 68.7702 83.125 68.7702H49.875C43.4516 68.7702 38 63.1872 38 56.6092ZM47.5 56.6092C47.5 57.8141 48.6984 59.0414 49.875 59.0414H83.125C84.3016 59.0414 85.5 57.8141 85.5 56.6092V27.0046L69.2832 10.3972H49.875C48.6984 10.3972 47.5 11.6244 47.5 12.8294V56.6092Z" fill="#798B9B"/>
<path d="M19 34.7193C19 32.0327 21.1266 29.8549 23.75 29.8549C26.3734 29.8549 28.5 32.0327 28.5 34.7193V77.2924C28.5048 77.302 28.5079 77.3144 28.5139 77.3257C28.5589 77.4101 28.6269 77.5179 28.718 77.6392C28.8086 77.7598 28.9103 77.8742 29.0103 77.9765C29.1102 78.0788 29.2219 78.183 29.3396 78.2758C29.4581 78.3691 29.5634 78.4387 29.6458 78.4848C29.6554 78.4902 29.6736 78.499 29.6736 78.499H61.75C64.3734 78.499 66.5 80.6769 66.5 83.3634C66.5 86.05 64.3734 88.2279 61.75 88.2279H29.4509C26.1305 88.2279 23.5518 86.1437 22.2935 84.8551C21.0351 83.5664 19 80.9256 19 77.5252V34.7193Z" fill="#798B9B"/>
<path d="M0 54.1769C0 51.4904 2.12665 49.3125 4.75 49.3125C7.37335 49.3125 9.5 51.4904 9.5 54.1769V96.7501C9.50478 96.7596 9.50789 96.772 9.51392 96.7833C9.5589 96.8677 9.62688 96.9755 9.71802 97.0969C9.80863 97.2174 9.91033 97.3318 10.0103 97.4342C10.1102 97.5365 10.2219 97.6406 10.3396 97.7334C10.4581 97.8268 10.5634 97.8964 10.6458 97.9425C10.6554 97.9478 10.6736 97.9567 10.6736 97.9567H42.75C45.3734 97.9567 47.5 100.135 47.5 102.821C47.5 105.508 45.3734 107.686 42.75 107.686H10.4509C7.13048 107.686 4.55179 105.601 3.29346 104.313C2.03512 103.024 0 100.383 0 96.9829V54.1769Z" fill="#798B9B"/>
</svg>
