<svg width="169" height="141" viewBox="0 0 169 141" fill="none" xmlns="http://www.w3.org/2000/svg">
<path d="M149.84 103.94C149.84 102.999 149.085 102.236 148.153 102.236H32.0607V135.888H148.153C149.085 135.888 149.84 135.125 149.84 134.184V103.94ZM128.748 125.665C130.146 125.665 131.279 126.809 131.279 128.221C131.279 129.632 130.146 130.776 128.748 130.776H41.3415C39.9436 130.776 38.8104 129.632 38.8104 128.221C38.8104 126.809 39.9436 125.665 41.3415 125.665H128.748ZM16.198 109.051C19.0782 109.051 21.4033 111.187 21.856 113.874C22.1394 115.556 21.6899 117.177 20.6365 118.552C21.9973 119.813 23.5046 122.042 22.5299 125.046C21.5154 128.172 18.4013 129.67 15.7993 129.699C14.4247 129.714 12.9329 129.342 11.6936 128.367C10.4083 127.356 9.59551 125.852 9.40309 124.028L14.4369 123.486C14.4956 124.043 14.6873 124.242 14.8044 124.334C14.9674 124.463 15.2758 124.593 15.7432 124.588C16.825 124.576 17.5618 123.939 17.7194 123.454C17.8173 123.152 17.8325 122.812 17.0504 122.176C16.6861 121.879 16.2684 121.636 15.9191 121.462C15.8353 121.42 15.7588 121.383 15.6917 121.353C14.9345 121.196 14.2576 120.693 13.905 119.931C13.313 118.653 13.8598 117.131 15.1261 116.533C16.0998 116.074 16.5323 115.604 16.713 115.314C16.883 115.042 16.8854 114.849 16.8654 114.731C16.812 114.414 16.5228 114.163 16.198 114.163C15.7742 114.163 15.5709 114.252 15.4923 114.295C15.4088 114.34 15.35 114.398 15.2983 114.472C15.2399 114.556 15.1979 114.654 15.1727 114.735C15.1612 114.771 15.1562 114.797 15.1562 114.797C15.1562 114.797 15.1576 114.79 15.1595 114.778C15.1605 114.772 15.1617 114.763 15.1632 114.753C15.1639 114.747 15.1648 114.741 15.1657 114.735C15.1661 114.732 15.1665 114.729 15.1669 114.725L15.1673 114.72L15.1492 114.844C14.9203 116.176 13.6938 117.108 12.3495 116.942C10.9619 116.772 9.97403 115.497 10.143 114.096L12.1954 114.348C10.1431 114.096 10.1434 114.093 10.1434 114.093L10.1446 114.085C10.1451 114.08 10.1457 114.076 10.1463 114.071C10.1475 114.062 10.1485 114.052 10.15 114.042C10.1529 114.02 10.1568 113.996 10.1611 113.969C10.1697 113.915 10.1812 113.849 10.1965 113.773C10.2272 113.622 10.2738 113.426 10.344 113.201C10.4822 112.757 10.725 112.155 11.1515 111.54C12.0791 110.202 13.7171 109.051 16.198 109.051ZM11.6516 121.216C13.0416 121.066 14.2888 122.083 14.4369 123.486L9.40309 124.028C9.2551 122.624 10.2617 121.365 11.6516 121.216ZM140.56 115.867C141.958 115.867 143.091 117.011 143.091 118.423C143.091 119.835 141.958 120.979 140.56 120.979H41.3415C39.9436 120.979 38.8104 119.835 38.8104 118.423C38.8104 117.011 39.9436 115.867 41.3415 115.867H140.56ZM140.56 106.069C141.958 106.069 143.091 107.214 143.091 108.625C143.091 110.037 141.958 111.181 140.56 111.181H41.3415C39.9436 111.181 38.8104 110.037 38.8104 108.625C38.8104 107.214 39.9436 106.069 41.3415 106.069H140.56ZM163.938 55.8036C163.938 54.8626 163.182 54.0997 162.25 54.0997H46.1582V87.7523H162.25C163.182 87.7523 163.938 86.9894 163.938 86.0483V55.8036ZM142.845 77.5287C144.243 77.5287 145.376 78.673 145.376 80.0846C145.376 81.4962 144.243 82.6405 142.845 82.6405H55.4389C54.041 82.6405 52.9078 81.4962 52.9078 80.0846C52.9078 78.673 54.041 77.5287 55.4389 77.5287H142.845ZM29.9169 60.0634C33.0514 60.0634 35.5364 62.0361 36.4156 64.8262C37.2904 67.6026 36.502 70.8134 34.1185 73.4877C33.142 74.5833 32.2203 75.5823 31.3876 76.4637H35.19C36.5879 76.4637 37.7211 77.6081 37.7211 79.0196C37.7211 80.4312 36.5879 81.5755 35.19 81.5755H25.4874C24.0895 81.5755 22.9563 80.4312 22.9563 79.0196C22.9563 78.9826 22.9572 78.9457 22.9588 78.909C22.9306 78.1894 23.2015 77.4623 23.765 76.9338C23.765 76.9338 23.7678 76.9313 23.7699 76.9292C23.7744 76.925 23.7818 76.9179 23.7918 76.9085C23.8118 76.8895 23.843 76.8602 23.8845 76.8207C23.9674 76.7416 24.0921 76.6221 24.2544 76.4646C24.5795 76.1492 25.0554 75.682 25.6489 75.0826C26.8366 73.8834 28.4923 72.1588 30.3556 70.0682C31.7687 68.4827 31.824 67.1141 31.5915 66.3762C31.3633 65.652 30.7899 65.1752 29.9169 65.1752C28.83 65.1752 28.4761 65.5929 28.2958 65.862C28.1696 66.0504 28.0871 66.2543 28.0379 66.4178C28.0145 66.4955 28.0019 66.5531 27.9967 66.5796C27.9942 66.5924 27.9933 66.5967 27.9942 66.5909C27.9947 66.5878 27.9956 66.582 27.9967 66.5734C27.9973 66.5691 27.998 66.5642 27.9988 66.5584C27.9991 66.5556 27.9996 66.5525 28 66.5493L28.0004 66.5443L28.0008 66.5414C27.8363 67.9419 26.5791 68.9434 25.1916 68.7786C23.8033 68.6136 22.8103 67.3434 22.9736 65.9415L25.4874 66.2402C22.9737 65.9415 22.974 65.9386 22.974 65.9386L22.9744 65.9361L22.9749 65.9298C22.9753 65.9258 22.9759 65.9215 22.9765 65.917C22.9777 65.9077 22.9791 65.8973 22.9806 65.8862C22.9836 65.8639 22.9872 65.8379 22.9917 65.8084C23.0008 65.7493 23.0132 65.6756 23.0301 65.5896C23.0636 65.418 23.1153 65.1926 23.194 64.931C23.3491 64.4157 23.6226 63.7143 24.1028 62.9975C25.1354 61.4562 26.9962 60.0634 29.9169 60.0634ZM154.657 67.7311L154.787 67.7344C156.125 67.8029 157.188 68.9195 157.188 70.287C157.188 71.6545 156.125 72.7711 154.787 72.8396L154.657 72.8429H55.4389C54.041 72.8429 52.9078 71.6986 52.9078 70.287C52.9078 68.8754 54.041 67.7311 55.4389 67.7311H154.657ZM154.657 57.9335L154.787 57.9369C156.125 58.0053 157.188 59.1219 157.188 60.4894C157.188 61.8569 156.125 62.9736 154.787 63.042L154.657 63.0453H55.4389C54.041 63.0453 52.9078 61.901 52.9078 60.4894C52.9078 59.0778 54.041 57.9335 55.4389 57.9335H154.657ZM149.84 6.81571C149.84 5.87466 149.085 5.11178 148.153 5.11178H32.0607V38.7644H148.153C149.085 38.7644 149.84 38.0015 149.84 37.0604V6.81571ZM128.748 28.5408L128.878 28.5441C130.215 28.6125 131.279 29.7292 131.279 31.0967C131.279 32.4642 130.215 33.5808 128.878 33.6492L128.748 33.6526H41.3415C39.9436 33.6526 38.8104 32.5083 38.8104 31.0967C38.8104 29.6851 39.9436 28.5408 41.3415 28.5408H128.748ZM14.343 29.8187V13.6314C14.343 12.2198 15.4762 11.0755 16.8741 11.0755C18.272 11.0755 19.4052 12.2198 19.4052 13.6314V29.8187C19.4052 31.2303 18.272 32.3746 16.8741 32.3746C15.4762 32.3746 14.343 31.2303 14.343 29.8187ZM140.56 18.7432L140.69 18.7465C142.027 18.815 143.091 19.9316 143.091 21.2991C143.091 22.6666 142.027 23.7832 140.69 23.8517L140.56 23.855H41.3415C39.9436 23.855 38.8104 22.7107 38.8104 21.2991C38.8104 19.8875 39.9436 18.7432 41.3415 18.7432H140.56ZM140.56 8.94562L140.69 8.94895C142.027 9.01737 143.091 10.134 143.091 11.5015C143.091 12.869 142.027 13.9857 140.69 14.0541L140.56 14.0574H41.3415C39.9436 14.0574 38.8104 12.9131 38.8104 11.5015C38.8104 10.0899 39.9436 8.94562 41.3415 8.94562H140.56ZM5.06222 134.184C5.06222 135.125 5.8177 135.888 6.74963 135.888H26.9985V102.236H6.74963C5.8177 102.236 5.06222 102.999 5.06222 103.94V134.184ZM154.903 134.184C154.903 137.949 151.881 141 148.153 141H6.74963C3.02191 141 0 137.949 0 134.184V103.94C0 100.175 3.02191 97.1239 6.74963 97.1239H77.4513H148.153C151.881 97.1239 154.903 100.175 154.903 103.94V134.184ZM19.1597 86.0483C19.1597 86.9894 19.9151 87.7523 20.8471 87.7523H41.0959V54.0997H20.8471C19.9151 54.0997 19.1597 54.8626 19.1597 55.8036V86.0483ZM169 86.0483C169 89.8126 165.978 92.8641 162.25 92.8641H20.8471C17.1193 92.8641 14.0974 89.8126 14.0974 86.0483V55.8036C14.0974 52.0394 17.1193 48.9879 20.8471 48.9879H162.25C165.978 48.9879 169 52.0394 169 55.8036V86.0483ZM5.06222 37.0604C5.06222 38.0015 5.8177 38.7644 6.74963 38.7644H26.9985V5.11178H6.74963C5.8177 5.11178 5.06222 5.87466 5.06222 6.81571V37.0604ZM154.903 37.0604C154.903 40.8246 151.881 43.8761 148.153 43.8761H6.74963C3.02191 43.8761 0 40.8246 0 37.0604V6.81571C0 3.0515 3.02191 0 6.74963 0H148.153C151.881 0 154.903 3.0515 154.903 6.81571V37.0604Z" fill="#5F7589" fill-opacity="0.75"/>
</svg>
